<?xml version="1.0" encoding="utf-8"?>
<!-- Generator: Adobe Illustrator 21.0.0, SVG Export Plug-In . SVG Version: 6.00 Build 0)  -->
<svg version="1.1" id="Слой_1" xmlns="http://www.w3.org/2000/svg" xmlns:xlink="http://www.w3.org/1999/xlink" x="0px" y="0px"
	 viewBox="0 0 1366 500" style="enable-background:new 0 0 1366 500;" xml:space="preserve">
<style type="text/css">
	.st0{fill:#FEFEFE;}
	.st1{fill:#D70305;}
	.st2{fill:#808388;}
</style>
<g id="Слой_x0020_1">
	<path class="st0" d="M655.4,192c-5.7-44.7,0.9-118.7,58.9-91.8C724.7,137.7,713.4,228.3,655.4,192z M749.4,162.9
		c10.6-49.9,7.4-92.1-46.1-96c-52.8-3.9-72.7,19-81.9,65.7c-9.6,49-8.5,90.1,44.6,95C721.1,232.6,739.5,209.8,749.4,162.9
		L749.4,162.9z"/>
	<path class="st0" d="M1016.1,94.6c17.3-1.6,28.3-2.4,43.3,3.2c8.3,41.4-14.3,40.5-49,39.9L1016.1,94.6L1016.1,94.6z M1004.3,169.5
		l3.9-6.1c8.3-0.4,26.1-3.2,29.6,3.8c12.5,5.7,12.1,43.5,14.4,57.5l33.9,0.1c-2.1-25.5-4.7-53.9-18.8-68l-5.8-3.5l9.4-4.2
		c34.1-13.2,29.1-61.4,13-72.4c-17.6-12.1-73.6-10.8-98.5-6l-21.3,154l33.4,0.1L1004.3,169.5L1004.3,169.5z"/>
	<path class="st0" d="M386.8,71.6c-36.3-5.3-47.4-7.4-72.5-2.6c-26.2,5-31.4,24.5-33.2,35.4C275,142,267.9,187.1,264.6,225l34.2,0.2
		l8.9-65.2l59.9-1l2.9-23.8l-58.7,0c1.5-15.8,2-26,7.8-38.1l65.1-1.1L386.8,71.6L386.8,71.6z"/>
	<path class="st0" d="M436.5,441.4c27.7-0.2,50-3.4,50.1-32.9c0.1-32-20.7-32.7-50.1-33V441.4z"/>
	<g id="_605506824">
		<path d="M749.4,162.9c-10,46.9-28.3,69.7-83.4,64.7c-53.1-4.9-54.2-46-44.6-95c9.2-46.6,29.1-69.6,81.9-65.7
			C756.8,70.8,760,113,749.4,162.9L749.4,162.9z M464.7,287.7l361-0.7L900.9,2.8L540.2,1.7L464.7,287.7L464.7,287.7z"/>
		<path d="M436.5,375.5c29.4,0.3,50.2,1,50.1,33c-0.1,29.5-22.4,32.7-50.1,32.9V375.5z M486.2,460.4c12.8-12.4,22.1-15.1,28.1-37.1
			c5-18.2,1.5-36.4-7.8-49.4c-20.4-28.4-55.1-27.2-99.4-24.1l1.1,143.3l27.6-0.2l1.8-25.2c28.7,0.2,22.1,13.1,41.3,25.5l34.1-0.6
			L486.2,460.4L486.2,460.4z"/>
		<path d="M821.6,429.9l-27.9,0.2c-11.6,20.5-15.7,37-44.9,37.3c-23.7,0.2-41.1-17.7-44.2-38.7c-6.2-42.3,40.5-80.1,84.9-32
			l20.8-15.1c-11.7-24-51.3-45-90.4-29.4c-28.2,11.2-52.5,46.1-44,84.4C693.8,517.4,810.9,513.7,821.6,429.9z"/>
		<path d="M870.1,490.5c-0.1-27.8-4.5-38,17.1-50.3c7.8,7.3,20,18.1,28.8,26.1c32.8,30,8.6,27,62.8,26.8
			c-15.3-24.3-54.6-50.3-70.6-74.7l67.9-68.9l-37,0.5c-15.2,14.6-54.2,58.1-69,65.5l-0.8-63.3l-25.9-0.1l-0.2,138.7L870.1,490.5
			L870.1,490.5z"/>
		<path d="M654.1,442.5l0.3-90.6l-25.8,0.4c-5.9,59.2,15.9,117.5-35.6,115.2c-41.7-1.9-31.4-61.4-30.8-118.2l-29,0
			c-0.1,50.2-9,112.2,25.1,135.4C597.9,511.7,654.4,487.9,654.1,442.5L654.1,442.5z"/>
		<path d="M1045.4,440.1c5.9,40.1-22.8,26.6-40.6,17.7c-8.1,8.7-10.9,8.1-20,16.5c7.9,14.7,30.5,22,47.7,20.9
			c41.7-2.7,59.6-54.1,31.5-80.2c-15.1-14.1-32.1-11-50.2-18.5c-4.7-27.5,12.3-21.7,28.9-16.2l20.8-15.6c-36-34.7-70.1-12-77.5,11.3
			c-6.3,19.8,3.2,37.3,13.8,44.3C1019,432.8,1029.5,422.9,1045.4,440.1L1045.4,440.1z"/>
		<path d="M323.4,375.3c8.9,9,4.5,104.7,4.4,115.3l27,0.1L354.5,376l37.3-0.2l0.9-22.6l0-4l-103.3,0.7l1.4,25.7L323.4,375.3
			L323.4,375.3z"/>
		<path d="M655.4,192c58,36.4,69.3-54.2,58.9-91.8C656.3,73.2,649.7,147.3,655.4,192z"/>
	</g>
	<g id="_605505696">
		<path class="st1" d="M1071,149.1l-3.7,7.8c14.1,14.1,16.7,42.6,18.8,68l-33.9-0.1c-2.3-14-1.9-51.8-14.4-57.5
			c-16.2-2.3-21.5-3.3-33.5,2.3l-6.8,55.3l-33.4-0.1l21.3-154c25-4.7,80.9-6.1,98.5,6C1100.1,87.8,1105.1,136,1071,149.1L1071,149.1
			z M825.7,287l362,0.5L1264,2.9L900.9,2.8L825.7,287L825.7,287z"/>
		<path class="st1" d="M1010.4,137.7c34.7,0.5,57.3,1.5,49-39.9c-15.1-5.6-26-4.8-43.3-3.2L1010.4,137.7L1010.4,137.7z"/>
	</g>
	<path class="st2" d="M384.7,96l-65.1,1.1c-5.8,12.1-6.3,22.3-7.8,38.1l58.7,0l-2.9,23.8l-59.9,1l-8.9,65.2l-34.2-0.2
		c3.3-37.9,10.5-83.5,16.5-121.1c7.2-44.6,56.7-39.9,105.7-32.3L384.7,96z M464.7,287.7l75.6-286L177.5,2.3l-75.8,284.8L464.7,287.7
		z"/>
</g>
</svg>
