<?xml version="1.0" encoding="utf-8"?>
<!-- Generator: Adobe Illustrator 21.0.0, SVG Export Plug-In . SVG Version: 6.00 Build 0)  -->
<svg version="1.1" id="Слой_1" xmlns="http://www.w3.org/2000/svg" xmlns:xlink="http://www.w3.org/1999/xlink" x="0px" y="0px"
	 viewBox="0 0 800 400" style="enable-background:new 0 0 800 400;" xml:space="preserve">
<style type="text/css">
	.st0{fill:#FFFFFF;}
	.st1{fill:#D70305;}
	.st2{fill:#808388;}
</style>
<rect x="110" y="57" class="st0" width="585" height="140"/>
<path d="M442.9,136.7c-6.5,30.4-18.3,45.1-53.9,41.8c-34.3-3.2-35.1-29.8-28.8-61.5c5.9-30.2,18.8-45,53-42.5
	C447.7,77.1,449.8,104.4,442.9,136.7L442.9,136.7z M258.8,217.4l233.5-0.4l48.6-183.9l-233.3-0.7L258.8,217.4L258.8,217.4z"/>
<path class="st0" d="M240.5,274.2c19,0.2,32.5,0.7,32.4,21.4c-0.1,19.1-14.5,21.2-32.4,21.3V274.2z M272.7,329.1
	c8.3-8,14.3-9.8,18.2-24c3.2-11.8,1-23.5-5-31.9c-13.2-18.4-35.6-17.6-64.3-15.6l0.7,92.7l17.8-0.1l1.2-16.3
	c18.6,0.1,14.3,8.4,26.7,16.5l22-0.4L272.7,329.1L272.7,329.1z"/>
<path class="st0" d="M489.6,309.4l-18,0.2c-7.5,13.3-10.1,23.9-29.1,24.1c-15.3,0.1-26.6-11.5-28.6-25c-4-27.4,26.2-51.8,54.9-20.7
	l13.5-9.8c-7.6-15.6-33.2-29.1-58.5-19c-18.2,7.3-34,29.8-28.5,54.6C407,366,482.7,363.6,489.6,309.4z"/>
<path class="st0" d="M521,348.6c-0.1-18-2.9-24.6,11-32.6c5.1,4.7,12.9,11.7,18.6,16.9c21.2,19.4,5.6,17.5,40.6,17.4
	c-9.9-15.7-35.3-32.5-45.6-48.3l43.9-44.6l-23.9,0.3c-9.8,9.4-35.1,37.6-44.6,42.4l-0.5-40.9l-16.7-0.1l-0.1,89.7L521,348.6
	L521,348.6z"/>
<path class="st0" d="M381.3,317.5l0.2-58.6l-16.7,0.2c-3.8,38.3,10.3,76-23,74.5c-26.9-1.2-20.3-39.7-19.9-76.4h-18.7
	c0,32.4-5.8,72.6,16.2,87.6C345,362.3,381.5,346.9,381.3,317.5L381.3,317.5z"/>
<path class="st0" d="M634.4,316c3.8,25.9-14.8,17.2-26.3,11.4c-5.3,5.6-7,5.3-13,10.7c5.1,9.5,19.7,14.2,30.9,13.5
	c27-1.8,38.5-35,20.4-51.9c-9.8-9.1-20.8-7.1-32.4-12c-3-17.8,8-14,18.7-10.5l13.5-10.1c-23.3-22.5-45.3-7.8-50.1,7.3
	c-4,12.8,2.1,24.1,8.9,28.6C617.3,311.2,624.1,304.9,634.4,316L634.4,316z"/>
<path class="st0" d="M167.4,274.1c5.7,5.8,2.9,67.7,2.8,74.6l17.4,0.1l-0.2-74.2l24.1-0.1l0.6-14.6v-2.6l-66.8,0.4l0.9,16.6
	L167.4,274.1L167.4,274.1z"/>
<path d="M382.1,155.5c37.5,23.5,44.8-35.1,38.1-59.4C382.7,78.7,378.4,126.6,382.1,155.5z"/>
<path class="st1" d="M650.9,127.8l-6.1,2.7l3.7,2.3c8.3,5.9,10.8,27.5,12.2,44l-22-0.1c-1.5-9.1-1.2-33.5-9.3-37.2
	c-6.3-2.9-19-7.9-21.6,1.5l-4.4,35.8l-21.6-0.1l13.8-99.6c16.1-3.1,52.3-3.9,63.7,3.9C669.7,88.1,673,119.3,650.9,127.8L650.9,127.8
	z M492.3,217l234.1,0.3l49.3-184.1l-234.9-0.1L492.3,217L492.3,217z"/>
<path class="st1" d="M611.8,120.4c22.4,0.4,37.1,1,31.7-25.8c-9.7-3.6-16.8-3.1-28-2L611.8,120.4L611.8,120.4z"/>
<path class="st2" d="M140,98.6c4.7-28.9,36.7-25.8,68.4-20.9L207,93.4l-42.1,0.7c-3.7,7.8-4.1,14.4-5,24.6h38l-1.9,15.4l-38.8,0.7
	l-5.8,42.2l-22.1-0.1 M258.8,217.4l48.9-185L73,32.8L24,217.1L258.8,217.4z"/>
<path class="st1" d="M619.3,153.7"/>
</svg>
