<?xml version="1.0" encoding="UTF-8"?>
<!DOCTYPE svg PUBLIC "-//W3C//DTD SVG 1.1//EN" "http://www.w3.org/Graphics/SVG/1.1/DTD/svg11.dtd">
<!-- Creator: CorelDRAW 2018 -->
<svg xmlns="http://www.w3.org/2000/svg" xml:space="preserve" width="297mm" height="210mm" version="1.1" style="shape-rendering:geometricPrecision; text-rendering:geometricPrecision; image-rendering:optimizeQuality; fill-rule:evenodd; clip-rule:evenodd"
viewBox="0 0 297 210"
 xmlns:xlink="http://www.w3.org/1999/xlink">
 <defs>
  <style type="text/css">
   <![CDATA[
    .fil1 {fill:black}
    .fil3 {fill:#808388}
    .fil2 {fill:#D70305}
    .fil0 {fill:#FEFEFE}
   ]]>
  </style>
 </defs>
 <g id="Слой_x0020_1">
  <metadata id="CorelCorpID_0Corel-Layer"/>
  <path class="fil0" d="M140.8064 61.2103c-1.3114,-10.1997 0.2079,-27.0918 13.445,-20.952 2.3696,8.5748 -0.2148,29.2463 -13.445,20.952zm21.4523 -6.6402c2.4188,-11.383 1.6852,-21.0113 -10.5151,-21.9142 -12.0439,-0.8909 -16.5937,4.3466 -18.6838,14.9891 -2.195,11.1771 -1.9402,20.5694 10.172,21.6838 12.5645,1.1559 16.7509,-4.0497 19.0269,-14.7587z"/>
  <path class="fil0" d="M223.1077 39.0025c3.9507,-0.3703 6.4561,-0.5493 9.8912,0.719 1.8938,9.4559 -3.2704,9.2309 -11.1876,9.1056l1.2964 -9.8246zm-2.6906 17.0896l0.8924 -1.3886c1.8943,-0.1009 5.95,-0.7218 6.744,0.8742 2.8592,1.3024 2.7512,9.9294 3.285,13.1237l7.7456 0.0277c-0.4738,-5.8074 -1.0648,-12.3029 -4.2887,-15.5196l-1.3146 -0.8047 2.1536 -0.9685c7.7719,-3.0045 6.633,-13.9997 2.9655,-16.5128 -4.0268,-2.7587 -16.7906,-2.4559 -22.4844,-1.3749l-4.8682 35.1373 7.6263 0.0307 1.5435 -12.6245z"/>
  <path class="fil0" d="M79.5139 33.7542c-11.0766,-0.7946 -22.4757,-2.7146 -24.1173,7.4672 -1.3839,8.5829 -3.0114,18.8813 -3.7714,27.5286l7.8113 0.0492 2.0342 -14.8781 13.6733 -0.2351 0.654 -5.4374 -13.388 0.0018c0.3309,-3.6058 0.4571,-5.9393 1.7711,-8.6953l14.8489 -0.2414 0.4839 -5.5595z"/>
  <path class="fil0" d="M90.8465 118.1298c6.3179,-0.0402 11.3979,-0.7644 11.4248,-7.5063 0.0289,-7.3088 -4.722,-7.4622 -11.4248,-7.5386l0 15.0449z"/>
  <g id="_605506824">
   <path class="fil1" d="M162.2587 54.5701c-2.276,10.709 -6.4624,15.9146 -19.0269,14.7587 -12.1122,-1.1144 -12.367,-10.5067 -10.172,-21.6838 2.0901,-10.6425 6.6399,-15.88 18.6838,-14.9891 12.2003,0.9029 12.9339,10.5312 10.5151,21.9142zm-64.9776 28.4842l82.3823 -0.1587 17.1537 -64.8582 -82.2954 -0.2462 -17.2406 65.2631z"/>
   <path class="fil1" d="M90.8465 103.0849c6.7028,0.0764 11.4537,0.2298 11.4248,7.5386 -0.0269,6.7419 -5.1069,7.4661 -11.4248,7.5063l0 -15.0449zm11.349 19.3763c2.9264,-2.8306 5.0317,-3.4476 6.4042,-8.4715 1.1356,-4.1566 0.3503,-8.3048 -1.7783,-11.2613 -4.6659,-6.4799 -12.5753,-6.2022 -22.6825,-5.495l0.2617 32.7079 6.2878 -0.0504 0.4087 -5.749c6.5474,0.0478 5.0541,2.9795 9.4296,5.8075l7.791 -0.1433 -6.1222 -7.3449z"/>
   <path class="fil1" d="M178.7268 115.5015l-6.363 0.0534c-2.64,4.6847 -3.5771,8.4456 -10.2552,8.5035 -5.4049,0.0471 -9.3834,-4.0429 -10.0774,-8.8197 -1.4038,-9.6612 9.2357,-18.2846 19.3772,-7.2996l4.7465 -3.4566c-2.6773,-5.4864 -11.7134,-10.2623 -20.6372,-6.71 -6.4284,2.5588 -11.9849,10.5088 -10.0437,19.2477 4.0966,18.4442 30.8088,17.6067 33.2528,-1.5187z"/>
   <path class="fil1" d="M189.7825 129.332c-0.029,-6.3349 -1.0336,-8.6696 3.897,-11.4853 1.7887,1.6702 4.5656,4.1192 6.5658,5.9473 7.4774,6.8353 1.9618,6.156 14.319,6.1222 -3.4837,-5.5448 -12.4607,-11.4677 -16.102,-17.0487l15.4987 -15.7239 -8.4399 0.1068c-3.4742,3.3256 -12.3781,13.2666 -15.7479,14.9545l-0.1769 -14.4434 -5.9035 -0.0293 -0.0349 31.6416 6.1246 -0.0418z"/>
   <path class="fil1" d="M140.5125 118.37l0.071 -20.6649 -5.8794 0.0799c-1.3489,13.4988 3.6222,26.8116 -8.1123,26.2746 -9.5048,-0.435 -7.1605,-14.0179 -7.0259,-26.9656l-6.6092 0.0066c-0.0164,11.4475 -2.0569,25.5972 5.7182,30.9055 9.014,6.1541 21.8937,0.7301 21.8376,-9.6361z"/>
   <path class="fil1" d="M229.8016 117.8204c1.3519,9.1414 -5.2104,6.0584 -9.2691,4.0369 -1.8564,1.991 -2.4776,1.8544 -4.5695,3.7616 1.7986,3.3602 6.966,5.0266 10.8931,4.7717 9.5177,-0.6176 13.5904,-12.3407 7.1949,-18.3087 -3.4402,-3.2101 -7.3211,-2.5107 -11.4439,-4.221 -1.0688,-6.2794 2.8046,-4.9556 6.5969,-3.7066l4.7473 -3.5682c-8.209,-7.9285 -15.9949,-2.7423 -17.6774,2.5702 -1.4285,4.511 0.7343,8.5025 3.1451,10.1045 4.3469,2.8885 6.75,0.6415 10.3826,4.5596z"/>
   <path class="fil1" d="M65.0565 103.0298c2.0197,2.0524 1.0154,23.8992 1.0052,26.3198l6.1512 0.0302 -0.0791 -26.1904 8.4999 -0.0487 0.2038 -5.1519 0.0092 -0.9073 -23.5817 0.1531 0.3103 5.8554 7.4812 -0.0602z"/>
   <path class="fil1" d="M140.8064 61.2103c13.2302,8.2943 15.8146,-12.3772 13.445,-20.952 -13.2371,-6.1398 -14.7564,10.7523 -13.445,20.952z"/>
  </g>
  <g id="_605505696">
   <path class="fil2" d="M235.6344 51.4363l-0.839 1.7732c3.2239,3.2167 3.8149,9.7122 4.2887,15.5196l-7.7456 -0.0277c-0.5338,-3.1943 -0.4258,-11.8213 -3.285,-13.1237 -3.6968,-0.5317 -4.8959,-0.7588 -7.6364,0.5144l-1.5435 12.6245 -7.6263 -0.0307 4.8682 -35.1373c5.6938,-1.081 18.4576,-1.3838 22.4844,1.3749 3.6675,2.5131 4.8064,13.5083 -2.9655,16.5128zm-55.971 31.4593l82.5997 0.1167 17.4077 -64.937 -82.8537 -0.0379 -17.1537 64.8582z"/>
   <path class="fil2" d="M221.8113 48.8271c7.9172,0.1253 13.0814,0.3503 11.1876,-9.1056 -3.4351,-1.2683 -5.9405,-1.0893 -9.8912,-0.719l-1.2964 9.8246z"/>
  </g>
  <path class="fil3" d="M79.03 39.3137l-14.8489 0.2414c-1.314,2.756 -1.4402,5.0895 -1.7711,8.6953l13.388 -0.0018 -0.654 5.4374 -13.6733 0.2351 -2.0342 14.8781 -7.8113 -0.0492c0.76,-8.6473 2.3875,-19.0505 3.7714,-27.6333 1.6416,-10.1818 12.936,-9.0999 24.1173,-7.3625l-0.4839 5.5595zm18.2511 43.7406l17.2406 -65.2631 -82.7588 0.1379 -17.291 64.9958 82.8092 0.1294z"/>
 </g>
</svg>
